<!DOCTYPE svg PUBLIC "-//W3C//DTD SVG 20010904//EN" "http://www.w3.org/TR/2001/REC-SVG-20010904/DTD/svg10.dtd">
<svg version="1.0" xmlns="http://www.w3.org/2000/svg" width="1024px" height="1024px" viewBox="0 0 10240 10240" preserveAspectRatio="xMidYMid meet">
<g id="layer101" fill="#597fd2" stroke="none">
 <path d="M4854 8912 c-27 -17 -64 -87 -64 -120 0 -45 31 -95 76 -121 62 -37 122 -24 177 38 22 25 27 40 27 84 0 44 -5 59 -31 90 -30 36 -31 37 -102 37 -40 0 -77 -4 -83 -8z"/>
 <path d="M5382 8816 c-39 -13 -100 -71 -113 -104 -14 -37 -10 -111 7 -148 21 -44 78 -88 129 -100 85 -21 178 38 209 133 15 45 15 53 1 94 -19 54 -57 96 -110 120 -46 21 -76 23 -123 5z"/>
 <path d="M5865 8493 c-54 -19 -101 -57 -132 -106 -23 -35 -27 -54 -27 -112 0 -62 3 -76 29 -115 46 -68 103 -103 175 -108 102 -7 176 35 229 131 61 111 -12 265 -147 311 -54 19 -73 19 -127 -1z"/>
 <path d="M6958 8363 c-43 -34 -58 -65 -58 -119 0 -34 7 -49 39 -85 38 -43 40 -44 101 -44 59 0 63 1 101 42 33 36 39 49 39 87 0 121 -130 190 -222 119z"/>
 <path d="M3854 8343 c-56 -19 -123 -78 -145 -127 -50 -110 7 -254 118 -302 34 -15 109 -18 161 -8 72 15 162 136 162 219 0 51 -44 139 -88 175 -34 28 -122 62 -154 59 -7 -1 -32 -8 -54 -16z"/>
 <path d="M3217 8289 c-82 -43 -118 -150 -77 -234 25 -52 91 -103 145 -112 45 -7 136 36 167 79 23 33 36 124 24 171 -6 27 -47 72 -91 98 -40 25 -119 24 -168 -2z"/>
 <path d="M4480 8134 c-94 -36 -124 -61 -165 -137 -19 -37 -25 -63 -25 -112 0 -74 10 -103 58 -163 35 -44 61 -61 133 -86 55 -20 73 -20 128 0 82 28 129 69 166 143 56 111 19 242 -89 315 -50 34 -67 39 -124 42 -37 2 -74 1 -82 -2z"/>
 <path d="M2740 8072 c-37 -18 -80 -82 -80 -118 0 -42 30 -94 71 -121 49 -32 94 -34 143 -4 48 30 70 68 70 122 0 105 -108 170 -204 121z"/>
 <path d="M7322 8016 c-42 -15 -95 -66 -117 -113 -34 -71 -3 -158 77 -215 48 -34 140 -33 194 3 128 85 104 263 -45 325 -40 17 -64 17 -109 0z"/>
 <path d="M6228 7960 c-182 -45 -253 -273 -129 -413 93 -106 236 -121 348 -36 132 100 139 279 13 392 -22 21 -51 42 -64 46 -38 15 -129 20 -168 11z"/>
 <path d="M4975 7643 c-95 -40 -159 -100 -200 -188 -28 -58 -27 -194 2 -255 30 -64 98 -138 147 -159 86 -38 99 -41 162 -41 120 0 242 78 297 190 18 37 22 62 22 140 0 80 -4 103 -24 144 -30 61 -82 113 -152 151 -68 37 -189 46 -254 18z"/>
 <path d="M7520 7481 c-106 -34 -170 -116 -170 -217 0 -95 65 -187 156 -218 59 -20 90 -20 145 -1 111 39 179 164 149 274 -13 48 -75 122 -124 147 -37 18 -121 27 -156 15z"/>
 <path d="M6340 7274 c-62 -11 -153 -68 -193 -119 -153 -198 -72 -449 172 -530 95 -31 191 -8 295 71 47 36 67 65 98 144 19 48 25 167 9 198 -4 9 -17 35 -27 57 -20 43 -117 145 -137 145 -7 0 -25 7 -40 15 -30 15 -134 27 -177 19z"/>
 <path d="M2923 7232 c-77 -23 -167 -129 -178 -210 -23 -170 126 -320 294 -296 79 11 166 81 202 162 69 158 -62 354 -236 351 -33 -1 -70 -4 -82 -7z"/>
 <path d="M3675 7187 c-94 -32 -164 -93 -212 -187 -38 -74 -40 -190 -4 -262 31 -64 91 -130 149 -165 44 -26 54 -28 157 -28 102 0 113 2 157 27 57 34 124 108 151 168 16 34 21 65 20 130 0 76 -3 91 -31 142 -62 112 -162 178 -281 184 -38 2 -83 -2 -106 -9z"/>
 <path d="M2277 7006 c-97 -48 -147 -120 -147 -213 0 -152 179 -280 303 -217 55 28 97 64 124 107 34 53 38 152 9 207 -28 53 -89 105 -145 124 -66 21 -87 20 -144 -8z"/>
 <path d="M5290 6884 c-107 -39 -234 -140 -261 -208 -7 -17 -16 -33 -20 -36 -3 -3 -14 -40 -23 -82 -16 -74 -16 -82 0 -155 22 -102 53 -156 122 -221 112 -103 243 -142 368 -108 266 71 399 356 276 595 -32 63 -117 145 -192 185 -48 26 -67 30 -155 32 -55 2 -107 1 -115 -2z"/>
 <path d="M7465 6829 c-51 -25 -111 -84 -136 -131 -26 -51 -26 -160 0 -214 25 -50 85 -109 135 -129 42 -18 148 -22 186 -7 50 20 110 73 140 124 53 94 39 207 -37 289 -76 82 -201 112 -288 68z"/>
 <path d="M4400 6766 c-73 -28 -86 -35 -128 -65 -52 -39 -124 -147 -146 -220 -39 -133 -4 -275 97 -387 75 -83 190 -134 302 -134 151 0 303 97 372 237 26 54 28 66 28 178 0 112 -2 124 -29 177 -28 57 -153 188 -179 188 -6 0 -25 8 -42 17 -41 22 -226 29 -275 9z"/>
 <path d="M8455 6694 c-53 -27 -95 -89 -89 -131 1 -7 2 -22 3 -33 0 -12 19 -40 40 -63 37 -39 43 -42 93 -42 64 0 116 34 137 90 25 69 -14 151 -86 181 -42 18 -61 17 -98 -2z"/>
 <path d="M1810 6598 c-44 -12 -86 -51 -111 -102 -23 -48 -24 -81 -3 -132 66 -161 258 -165 338 -7 46 92 -15 216 -121 242 -49 13 -56 13 -103 -1z"/>
 <path d="M6057 6481 c-155 -33 -292 -181 -318 -344 -20 -122 14 -232 103 -331 88 -100 174 -139 304 -140 46 0 93 5 106 11 13 6 43 19 68 29 48 20 149 108 180 158 38 63 54 128 54 221 0 79 -4 98 -32 158 -39 85 -115 163 -202 205 -52 26 -81 33 -145 37 -44 2 -97 0 -118 -4z"/>
 <path d="M7121 6215 c-78 -26 -148 -89 -197 -178 -25 -46 -29 -62 -29 -137 0 -68 5 -95 22 -132 30 -62 77 -114 138 -153 96 -60 183 -70 277 -31 113 46 181 123 213 241 17 64 17 71 1 137 -27 112 -88 188 -191 238 -60 30 -168 36 -234 15z"/>
 <path d="M8486 6210 c-34 -11 -92 -63 -112 -103 -24 -45 -21 -99 7 -153 30 -58 74 -90 134 -100 154 -23 262 147 176 277 -16 24 -43 52 -59 62 -37 21 -107 30 -146 17z"/>
 <path d="M3785 6180 c-91 -19 -210 -109 -262 -197 -30 -52 -63 -156 -63 -202 0 -48 26 -142 56 -199 35 -67 106 -134 187 -177 l68 -35 -38 0 c-94 0 -212 -54 -293 -133 -123 -119 -154 -321 -74 -476 33 -62 132 -158 200 -192 43 -21 62 -24 164 -24 108 0 119 2 174 30 72 36 165 125 194 185 12 25 28 78 37 118 13 64 13 80 0 142 -8 39 -27 93 -41 122 -47 93 -159 181 -273 214 l-46 14 51 -4 c77 -7 175 10 232 40 64 33 153 122 186 186 49 94 54 262 11 344 -8 16 -15 33 -15 37 0 30 -122 142 -192 176 -54 27 -81 33 -144 36 -44 2 -97 0 -119 -5z"/>
 <path d="M1507 6101 c-15 -10 -34 -27 -42 -37 -20 -26 -20 -143 0 -171 22 -31 72 -53 122 -53 38 0 49 5 88 45 40 39 45 50 45 88 0 108 -126 184 -213 128z"/>
 <path d="M2890 6051 c-115 -38 -214 -146 -240 -263 -32 -142 50 -294 198 -368 38 -19 63 -24 127 -24 96 1 147 21 221 87 76 69 96 114 102 228 4 86 2 101 -21 150 -28 61 -101 135 -168 170 -47 24 -172 36 -219 20z"/>
 <path d="M6465 5733 c-120 -18 -253 -117 -309 -229 -53 -105 -52 -261 1 -365 39 -76 115 -149 198 -190 65 -32 76 -34 170 -34 93 0 105 2 165 32 120 59 197 150 234 275 20 71 20 125 0 196 -32 109 -80 179 -173 246 -73 53 -197 83 -286 69z"/>
 <path d="M8327 5670 c-46 -9 -109 -52 -151 -103 -29 -36 -31 -44 -31 -122 0 -78 2 -86 31 -122 74 -91 149 -123 241 -103 59 14 107 49 144 108 58 91 45 193 -34 269 -67 65 -126 87 -200 73z"/>
 <path d="M2185 5600 c-135 -63 -190 -221 -120 -349 65 -119 202 -171 318 -122 135 58 202 209 147 335 -22 52 -76 108 -131 136 -50 26 -158 26 -214 0z"/>
 <path d="M7863 5144 c-88 -43 -163 -152 -163 -236 1 -77 68 -183 143 -224 68 -38 169 -40 233 -7 170 90 192 317 41 433 -85 65 -168 76 -254 34z"/>
 <path d="M1840 5060 c-95 -18 -170 -98 -186 -199 -13 -80 50 -187 138 -232 73 -38 172 -20 243 43 57 50 78 99 73 177 -3 56 -9 74 -38 115 -56 78 -142 114 -230 96z"/>
 <path d="M6312 4889 c-80 -10 -141 -41 -212 -106 -50 -46 -74 -82 -114 -172 -6 -13 -11 -69 -11 -125 0 -101 2 -108 48 -206 24 -50 125 -140 194 -173 62 -29 77 -32 163 -32 86 0 101 3 160 31 160 77 250 214 250 381 0 106 -30 187 -102 268 -97 110 -216 153 -376 134z"/>
 <path d="M7215 4874 c-53 -14 -113 -51 -167 -101 -32 -31 -58 -61 -58 -67 0 -6 -8 -24 -17 -41 -12 -22 -17 -55 -17 -121 -1 -76 3 -98 23 -137 31 -59 98 -127 164 -163 46 -25 63 -29 137 -29 106 0 157 21 233 97 86 85 122 202 92 303 -43 149 -163 252 -303 260 -37 2 -76 2 -87 -1z"/>
 <path d="M2918 4696 c-57 -21 -136 -86 -168 -138 -16 -26 -37 -76 -47 -112 -15 -57 -15 -72 -4 -118 20 -80 51 -137 100 -182 38 -36 59 -50 134 -88 11 -5 52 -10 92 -10 59 0 83 5 131 28 160 76 240 252 186 407 -27 75 -94 154 -163 192 -45 24 -68 30 -139 32 -55 2 -98 -2 -122 -11z"/>
 <path d="M3990 4584 c-106 -38 -214 -126 -253 -207 -8 -18 -21 -45 -28 -61 -9 -19 -14 -66 -14 -135 1 -96 3 -112 29 -164 40 -83 129 -170 213 -209 61 -29 78 -32 163 -33 102 0 140 12 242 77 51 32 121 128 151 206 22 56 22 183 0 248 -36 107 -116 200 -216 250 -45 24 -67 27 -162 30 -60 2 -117 1 -125 -2z"/>
 <path d="M1674 4430 c-122 -27 -186 -148 -134 -255 33 -68 88 -105 157 -105 62 0 95 15 140 62 42 44 59 107 43 164 -23 82 -129 151 -206 134z"/>
 <path d="M8598 4363 c-34 -22 -68 -82 -68 -123 0 -38 41 -100 83 -123 52 -31 104 -20 160 31 25 23 27 32 27 98 0 70 -1 73 -35 103 -30 26 -44 31 -88 31 -31 0 -63 -7 -79 -17z"/>
 <path d="M5615 4273 c-72 -22 -178 -94 -213 -145 -71 -105 -77 -123 -77 -253 0 -95 4 -126 18 -150 9 -16 17 -36 17 -43 0 -17 155 -172 172 -172 7 0 27 -8 43 -17 24 -14 55 -18 150 -18 112 0 124 2 177 28 106 53 180 140 221 262 43 123 4 280 -97 392 -98 109 -272 158 -411 116z"/>
 <path d="M4780 4191 c-182 -39 -340 -229 -340 -411 0 -97 59 -229 130 -292 98 -87 175 -120 285 -121 150 0 293 89 365 228 34 66 35 69 35 189 -1 115 -2 124 -32 182 -39 76 -127 158 -210 196 -67 30 -170 43 -233 29z"/>
 <path d="M8311 3967 c-70 -35 -104 -85 -109 -160 -4 -59 -2 -66 29 -106 19 -24 50 -52 69 -62 37 -20 104 -25 143 -10 43 17 94 69 112 116 15 41 16 52 4 92 -16 59 -61 110 -117 134 -55 24 -77 23 -131 -4z"/>
 <path d="M2627 3939 c-118 -18 -217 -150 -204 -273 14 -133 121 -229 257 -230 106 -1 193 54 236 152 43 96 23 204 -53 278 -69 67 -136 88 -236 73z"/>
 <path d="M1695 3858 c-60 -21 -105 -83 -105 -143 0 -47 50 -111 99 -126 59 -18 103 -5 145 41 36 40 41 57 37 114 -7 76 -104 139 -176 114z"/>
 <path d="M6403 3701 c-90 -23 -184 -102 -226 -190 -32 -68 -32 -209 1 -273 57 -110 191 -198 302 -198 115 0 246 90 305 208 31 61 37 151 15 217 -31 95 -112 186 -195 221 -44 18 -157 27 -202 15z"/>
 <path d="M7826 3660 c-79 -24 -155 -111 -164 -186 -9 -79 5 -128 51 -180 127 -144 327 -100 394 86 19 52 16 85 -13 145 -51 109 -164 166 -268 135z"/>
 <path d="M3753 3641 c-68 -18 -203 -122 -203 -158 0 -4 -8 -21 -17 -38 -26 -45 -24 -217 3 -265 55 -99 124 -155 226 -184 72 -20 87 -20 167 4 206 61 302 309 190 491 -30 47 -91 100 -158 134 -38 19 -159 29 -208 16z"/>
 <path d="M7168 3503 c-60 -20 -120 -71 -155 -130 -21 -36 -26 -58 -27 -112 0 -83 19 -127 84 -192 56 -56 107 -73 195 -66 103 8 161 51 222 167 20 38 16 134 -6 184 -21 45 -89 114 -138 140 -47 24 -121 28 -175 9z"/>
 <path d="M5085 3254 c-81 -20 -190 -103 -220 -168 -48 -103 -55 -165 -28 -249 32 -99 89 -166 183 -213 46 -24 67 -28 130 -28 92 1 164 30 231 95 69 67 103 144 104 233 0 43 -6 85 -14 102 -8 16 -21 44 -30 62 -23 47 -88 107 -150 138 -54 26 -156 40 -206 28z"/>
 <path d="M2595 3238 c-97 -34 -165 -126 -165 -222 0 -80 38 -144 115 -195 34 -22 51 -26 115 -26 67 0 80 3 120 30 78 53 118 137 105 221 -9 61 -30 98 -79 141 -65 57 -142 75 -211 51z"/>
 <path d="M3834 2785 c-83 -41 -136 -110 -148 -196 -7 -44 8 -142 25 -163 78 -100 128 -129 223 -130 104 -1 194 56 237 151 47 103 34 184 -43 268 -87 96 -190 120 -294 70z"/>
 <path d="M5608 2611 c-175 -69 -233 -273 -116 -406 59 -66 108 -89 194 -90 113 0 188 49 238 159 27 57 18 167 -17 222 -35 57 -87 97 -150 117 -67 21 -90 21 -149 -2z"/>
 <path d="M2795 2605 c-111 -40 -154 -178 -86 -274 74 -103 217 -100 299 7 37 48 39 140 4 190 -55 76 -138 106 -217 77z"/>
 <path d="M7365 2413 c-79 -43 -104 -116 -66 -192 46 -90 149 -103 222 -30 35 35 39 44 39 91 0 108 -106 179 -195 131z"/>
 <path d="M6235 2339 c-43 -12 -99 -62 -126 -111 -16 -32 -22 -60 -22 -108 -1 -75 14 -108 70 -162 94 -90 205 -90 304 -1 46 42 64 72 72 127 7 44 -9 139 -23 144 -6 2 -10 8 -10 14 0 20 -83 88 -119 98 -43 12 -105 12 -146 -1z"/>
 <path d="M6870 2287 c-48 -15 -118 -89 -126 -133 -3 -19 -3 -55 1 -80 9 -60 70 -123 138 -143 41 -12 52 -11 89 4 77 30 138 107 138 174 -1 70 -75 160 -147 180 -44 13 -47 13 -93 -2z"/>
 <path d="M4232 2202 c-110 -35 -190 -160 -164 -257 17 -65 50 -112 101 -148 42 -30 52 -32 126 -32 76 0 83 2 129 35 54 39 105 124 106 174 0 61 -47 152 -101 194 -20 16 -128 55 -141 51 -1 -1 -27 -8 -56 -17z"/>
 <path d="M3154 2162 c-29 -9 -78 -51 -93 -79 -17 -33 -13 -94 9 -131 58 -94 180 -93 239 2 51 83 -2 195 -99 209 -19 3 -45 3 -56 -1z"/>
 <path d="M4710 1779 c-121 -70 -145 -202 -54 -293 73 -73 171 -74 250 -2 45 40 48 45 52 104 6 81 -1 103 -44 146 -66 66 -139 82 -204 45z"/>
 <path d="M5222 1580 c-69 -42 -91 -126 -51 -195 28 -47 46 -55 119 -55 73 0 91 8 119 55 72 123 -67 268 -187 195z"/>
 </g>
<g id="layer102" fill="#67a1e4" stroke="none">
 <path d="M4854 8912 c-27 -17 -64 -87 -64 -120 0 -45 31 -95 76 -121 62 -37 122 -24 177 38 22 25 27 40 27 84 0 44 -5 59 -31 90 -30 36 -31 37 -102 37 -40 0 -77 -4 -83 -8z"/>
 <path d="M5382 8816 c-39 -13 -100 -71 -113 -104 -14 -37 -10 -111 7 -148 21 -44 78 -88 129 -100 85 -21 178 38 209 133 15 45 15 53 1 94 -19 54 -57 96 -110 120 -46 21 -76 23 -123 5z"/>
 <path d="M5865 8493 c-54 -19 -101 -57 -132 -106 -23 -35 -27 -54 -27 -112 0 -62 3 -76 29 -115 46 -68 103 -103 175 -108 102 -7 176 35 229 131 61 111 -12 265 -147 311 -54 19 -73 19 -127 -1z"/>
 <path d="M6958 8363 c-43 -34 -58 -65 -58 -119 0 -34 7 -49 39 -85 38 -43 40 -44 101 -44 59 0 63 1 101 42 33 36 39 49 39 87 0 121 -130 190 -222 119z"/>
 <path d="M3854 8343 c-56 -19 -123 -78 -145 -127 -50 -110 7 -254 118 -302 34 -15 109 -18 161 -8 72 15 162 136 162 219 0 51 -44 139 -88 175 -34 28 -122 62 -154 59 -7 -1 -32 -8 -54 -16z"/>
 <path d="M3217 8289 c-82 -43 -118 -150 -77 -234 25 -52 91 -103 145 -112 45 -7 136 36 167 79 23 33 36 124 24 171 -6 27 -47 72 -91 98 -40 25 -119 24 -168 -2z"/>
 <path d="M4480 8134 c-94 -36 -124 -61 -165 -137 -19 -37 -25 -63 -25 -112 0 -74 10 -103 58 -163 35 -44 61 -61 133 -86 55 -20 73 -20 128 0 82 28 129 69 166 143 56 111 19 242 -89 315 -50 34 -67 39 -124 42 -37 2 -74 1 -82 -2z"/>
 <path d="M2740 8072 c-37 -18 -80 -82 -80 -118 0 -42 30 -94 71 -121 49 -32 94 -34 143 -4 48 30 70 68 70 122 0 105 -108 170 -204 121z"/>
 <path d="M7322 8016 c-42 -15 -95 -66 -117 -113 -34 -71 -3 -158 77 -215 48 -34 140 -33 194 3 128 85 104 263 -45 325 -40 17 -64 17 -109 0z"/>
 <path d="M6228 7960 c-182 -45 -253 -273 -129 -413 93 -106 236 -121 348 -36 132 100 139 279 13 392 -22 21 -51 42 -64 46 -38 15 -129 20 -168 11z"/>
 <path d="M4975 7643 c-95 -40 -159 -100 -200 -188 -28 -58 -27 -194 2 -255 30 -64 98 -138 147 -159 86 -38 99 -41 162 -41 120 0 242 78 297 190 18 37 22 62 22 140 0 80 -4 103 -24 144 -30 61 -82 113 -152 151 -68 37 -189 46 -254 18z"/>
 <path d="M7520 7481 c-106 -34 -170 -116 -170 -217 0 -95 65 -187 156 -218 59 -20 90 -20 145 -1 111 39 179 164 149 274 -13 48 -75 122 -124 147 -37 18 -121 27 -156 15z"/>
 <path d="M6340 7274 c-62 -11 -153 -68 -193 -119 -153 -198 -72 -449 172 -530 95 -31 191 -8 295 71 47 36 67 65 98 144 19 48 25 167 9 198 -4 9 -17 35 -27 57 -20 43 -117 145 -137 145 -7 0 -25 7 -40 15 -30 15 -134 27 -177 19z"/>
 <path d="M2923 7232 c-77 -23 -167 -129 -178 -210 -23 -170 126 -320 294 -296 79 11 166 81 202 162 69 158 -62 354 -236 351 -33 -1 -70 -4 -82 -7z"/>
 <path d="M3675 7187 c-94 -32 -164 -93 -212 -187 -38 -74 -40 -190 -4 -262 31 -64 91 -130 149 -165 44 -26 54 -28 157 -28 102 0 113 2 157 27 57 34 124 108 151 168 16 34 21 65 20 130 0 76 -3 91 -31 142 -62 112 -162 178 -281 184 -38 2 -83 -2 -106 -9z"/>
 <path d="M2277 7006 c-97 -48 -147 -120 -147 -213 0 -63 18 -103 69 -156 43 -46 109 -77 163 -77 66 0 151 54 195 123 34 53 38 152 9 207 -28 53 -89 105 -145 124 -66 21 -87 20 -144 -8z"/>
 <path d="M5290 6884 c-109 -39 -237 -143 -262 -211 -7 -18 -15 -33 -18 -33 -4 0 -15 -37 -24 -82 -18 -86 -18 -83 15 -218 2 -8 10 -21 17 -28 7 -8 10 -18 7 -23 -4 -5 -2 -9 2 -9 5 0 14 -14 20 -31 7 -18 17 -28 23 -24 6 3 9 2 8 -3 -2 -5 17 -28 42 -50 37 -33 51 -39 74 -35 20 4 27 2 22 -6 -4 -6 -2 -11 4 -11 6 0 8 -6 5 -12 -3 -7 0 -6 6 3 11 14 15 14 40 2 16 -8 29 -21 29 -29 0 -8 5 -14 11 -14 5 0 8 4 5 9 -3 5 5 8 19 7 29 -1 33 -12 8 -19 -10 -3 8 -5 40 -6 31 0 57 3 57 8 0 6 9 8 20 6 11 -2 20 0 20 5 0 5 6 7 14 4 7 -3 40 9 72 26 213 111 293 351 186 559 -32 63 -117 145 -192 185 -48 26 -67 30 -155 32 -55 2 -107 1 -115 -2z m121 -812 c-13 -2 -27 0 -32 5 -6 6 3 7 23 4 28 -4 29 -6 9 -9z"/>
 <path d="M7465 6829 c-51 -25 -111 -84 -136 -131 -26 -51 -26 -160 0 -214 25 -50 85 -109 135 -129 42 -18 148 -22 186 -7 50 20 110 73 140 124 53 94 39 207 -37 289 -76 82 -201 112 -288 68z"/>
 <path d="M4400 6766 c-73 -28 -86 -35 -128 -65 -52 -39 -124 -147 -146 -220 -39 -133 -4 -275 97 -387 75 -83 190 -134 302 -134 151 0 303 97 372 237 26 54 28 66 28 178 0 112 -2 124 -29 177 -28 57 -153 188 -179 188 -6 0 -25 8 -42 17 -41 22 -226 29 -275 9z"/>
 <path d="M8455 6694 c-53 -27 -95 -89 -89 -131 1 -7 2 -22 3 -33 0 -12 19 -40 40 -63 37 -39 43 -42 93 -42 64 0 116 34 137 90 25 69 -14 151 -86 181 -42 18 -61 17 -98 -2z"/>
 <path d="M1834 6598 c-3 -5 -3 -12 0 -15 3 -4 6 -1 6 6 0 8 9 6 28 -7 40 -27 112 -46 125 -33 8 8 6 11 -6 11 -9 0 -17 3 -17 8 0 11 -59 35 -74 29 -8 -3 -17 -3 -20 1 -11 10 -36 11 -42 0z"/>
 <path d="M6055 6480 c-78 -17 -215 -105 -215 -137 0 -7 -9 -18 -20 -25 -11 -7 -20 -21 -20 -30 0 -10 -4 -18 -9 -18 -5 0 -11 -9 -14 -19 -4 -17 -1 -18 25 -10 22 6 33 4 47 -10 10 -10 35 -21 56 -24 20 -3 45 -13 55 -22 9 -8 31 -15 48 -15 18 0 32 -4 32 -9 0 -6 20 -13 45 -17 25 -3 45 -10 45 -15 0 -5 18 -12 40 -15 22 -4 40 -10 40 -15 0 -5 9 -9 20 -9 11 0 29 -9 40 -20 11 -11 33 -20 48 -20 16 0 46 -9 68 -19 22 -11 54 -23 70 -27 16 -4 34 -11 40 -16 21 -16 54 -18 54 -3 0 7 -5 15 -11 17 -8 3 -7 8 3 18 13 14 15 51 8 143 -3 45 -63 151 -114 201 -76 76 -160 114 -261 120 -44 3 -98 1 -120 -4z"/>
 <path d="M7121 6215 c-73 -24 -141 -82 -186 -159 -34 -58 -40 -86 -39 -176 0 -63 5 -82 27 -117 15 -24 27 -46 27 -51 0 -11 68 -74 102 -95 15 -9 34 -17 43 -17 9 0 13 -4 10 -10 -4 -6 6 -10 24 -10 16 0 33 -4 36 -10 8 -14 115 -13 115 1 0 5 5 7 10 4 6 -4 17 -1 25 5 8 7 15 10 15 6 0 -7 55 20 77 38 78 62 110 108 133 187 24 80 24 81 4 160 -27 105 -89 181 -189 229 -60 30 -168 36 -234 15z"/>
 <path d="M8486 6210 c-34 -11 -92 -63 -112 -103 -24 -45 -21 -99 7 -153 30 -58 74 -90 134 -100 154 -23 262 147 176 277 -16 24 -43 52 -59 62 -37 21 -107 30 -146 17z"/>
 <path d="M3785 6180 c-91 -19 -210 -109 -262 -197 -30 -52 -63 -156 -63 -202 0 -48 26 -142 56 -199 35 -67 106 -134 187 -177 l68 -35 -38 0 c-94 0 -212 -54 -293 -133 -123 -119 -154 -321 -74 -476 33 -62 132 -158 200 -192 43 -21 62 -24 164 -24 108 0 119 2 174 30 72 36 165 125 194 185 12 25 28 78 37 118 13 64 13 80 0 142 -8 39 -27 93 -41 122 -47 93 -159 181 -273 214 l-46 14 51 -4 c77 -7 175 10 232 40 64 33 153 122 186 186 49 94 54 262 11 344 -8 16 -15 33 -15 37 0 30 -122 142 -192 176 -54 27 -81 33 -144 36 -44 2 -97 0 -119 -5z"/>
 <path d="M2890 6051 c-115 -38 -214 -146 -240 -263 -32 -142 50 -294 198 -368 38 -19 63 -24 127 -24 96 1 147 21 221 87 76 69 96 114 102 228 4 86 2 101 -21 150 -28 61 -101 135 -168 170 -47 24 -172 36 -219 20z"/>
 <path d="M6477 5732 c-13 -6 -5 -11 30 -20 26 -7 61 -19 76 -27 16 -8 35 -15 43 -15 8 0 14 -4 14 -10 0 -5 9 -10 19 -10 11 0 23 -4 26 -10 3 -5 23 -10 44 -10 20 0 42 -5 49 -12 6 -6 15 -8 19 -5 8 9 -56 66 -74 67 -7 0 -13 4 -13 8 0 5 -16 13 -35 19 -19 6 -35 7 -35 2 0 -4 -7 -6 -15 -3 -8 4 -12 10 -9 15 3 5 -9 6 -26 3 -17 -4 -30 -2 -30 3 0 12 -30 11 -49 -2 -10 -5 -12 -4 -7 3 8 13 0 14 -27 4z"/>
 <path d="M8327 5670 c-46 -9 -109 -52 -151 -103 -29 -36 -31 -44 -31 -122 0 -78 2 -86 31 -122 74 -91 149 -123 241 -103 59 14 107 49 144 108 58 91 45 193 -34 269 -67 65 -126 87 -200 73z"/>
 <path d="M2185 5600 c-135 -63 -190 -221 -120 -349 65 -119 202 -171 318 -122 135 58 202 209 147 335 -22 52 -76 108 -131 136 -50 26 -158 26 -214 0z"/>
 <path d="M7863 5144 c-65 -31 -126 -99 -147 -164 -20 -60 -20 -83 0 -139 41 -118 134 -186 253 -186 241 2 340 308 148 455 -85 65 -168 76 -254 34z"/>
 <path d="M1840 5060 c-95 -18 -170 -98 -186 -199 -13 -80 53 -190 139 -231 41 -20 132 -22 178 -3 40 17 87 62 115 109 23 39 26 53 22 112 -3 58 -8 74 -38 116 -56 78 -142 114 -230 96z"/>
 <path d="M6467 4883 c-10 -15 7 -25 47 -27 35 -3 99 -37 130 -70 12 -14 17 -16 14 -6 -4 16 -110 91 -117 84 -2 -2 -10 1 -17 7 -8 6 -20 9 -28 6 -8 -3 -16 -1 -19 6 -2 8 -5 8 -10 0z"/>
 <path d="M7225 4870 c-4 -6 -11 -8 -16 -4 -19 11 -100 -37 -162 -96 -34 -33 -56 -60 -48 -60 10 0 11 -3 2 -13 -13 -17 -5 -27 22 -27 10 0 41 -11 69 -25 27 -14 63 -25 79 -25 15 0 54 -13 86 -29 32 -16 79 -35 106 -41 26 -7 47 -15 47 -19 0 -7 42 -26 80 -36 14 -4 41 -14 60 -22 24 -11 35 -13 38 -4 2 6 8 9 13 5 5 -3 9 1 9 8 0 7 3 24 7 37 5 19 3 22 -8 16 -12 -8 -12 -6 -1 8 12 13 11 25 -3 73 -43 147 -164 250 -305 259 -41 3 -71 1 -75 -5z"/>
 <path d="M2918 4696 c-57 -21 -136 -86 -168 -138 -16 -26 -37 -76 -47 -112 -15 -57 -15 -72 -4 -118 20 -80 51 -137 100 -182 38 -36 59 -50 134 -88 11 -5 52 -10 92 -10 59 0 83 5 131 28 160 76 240 252 186 407 -27 75 -94 154 -163 192 -45 24 -68 30 -139 32 -55 2 -98 -2 -122 -11z"/>
 <path d="M3990 4584 c-106 -38 -214 -126 -253 -207 -8 -18 -21 -45 -28 -61 -9 -19 -14 -66 -14 -135 1 -96 3 -112 29 -164 40 -83 129 -170 213 -209 61 -29 78 -32 163 -33 102 0 140 12 242 77 51 32 121 128 151 206 22 56 22 183 0 248 -36 107 -116 200 -216 250 -45 24 -67 27 -162 30 -60 2 -117 1 -125 -2z"/>
 <path d="M8598 4363 c-34 -22 -68 -82 -68 -123 0 -38 41 -100 83 -123 52 -31 104 -20 160 31 25 23 27 32 27 98 0 70 -1 73 -35 103 -30 26 -44 31 -88 31 -31 0 -63 -7 -79 -17z"/>
 <path d="M5615 4273 c-151 -46 -285 -198 -289 -327 -1 -46 1 -51 22 -54 12 -2 22 -7 22 -12 0 -4 8 -10 18 -14 9 -3 28 -10 42 -15 14 -5 63 -23 109 -40 46 -17 92 -31 101 -31 10 0 47 -13 83 -30 76 -34 121 -52 232 -90 58 -20 80 -32 79 -44 -1 -8 2 -13 8 -10 5 3 6 14 3 24 -4 12 1 19 13 22 32 9 82 144 82 221 0 144 -92 301 -212 361 -114 57 -213 69 -313 39z"/>
 <path d="M4780 4191 c-182 -39 -340 -229 -340 -411 0 -97 59 -229 130 -292 98 -87 175 -120 285 -121 150 0 293 89 365 228 34 66 35 69 35 189 -1 115 -2 124 -32 182 -39 76 -127 158 -210 196 -67 30 -170 43 -233 29z"/>
 <path d="M8311 3967 c-70 -35 -104 -85 -109 -160 -4 -59 -2 -66 29 -106 19 -24 50 -52 69 -62 37 -20 104 -25 143 -10 43 17 94 69 112 116 15 41 16 52 4 92 -16 59 -61 110 -117 134 -55 24 -77 23 -131 -4z"/>
 <path d="M2627 3939 c-118 -18 -217 -150 -204 -273 14 -133 121 -229 257 -230 106 -1 193 54 236 152 43 96 23 204 -53 278 -69 67 -136 88 -236 73z"/>
 <path d="M6415 3704 c-11 -3 -27 -8 -35 -11 -8 -4 -17 -7 -20 -8 -54 -18 -140 -92 -140 -121 0 -8 4 -13 9 -10 9 6 162 -42 171 -53 10 -12 61 -31 84 -31 13 0 29 -7 36 -15 7 -8 21 -15 32 -15 20 0 165 -48 183 -60 6 -4 25 -12 43 -18 27 -9 34 -9 39 4 3 9 2 19 -3 23 -5 3 -9 22 -10 42 -2 82 -99 210 -189 250 -45 20 -160 33 -200 23z"/>
 <path d="M7826 3660 c-79 -24 -155 -111 -164 -186 -9 -79 5 -128 51 -180 127 -144 327 -100 394 86 19 52 16 85 -13 145 -51 109 -164 166 -268 135z"/>
 <path d="M3753 3641 c-68 -18 -203 -122 -203 -158 0 -4 -8 -21 -17 -38 -26 -45 -24 -217 3 -265 55 -99 124 -155 226 -184 72 -20 87 -20 167 4 206 61 302 309 190 491 -30 47 -91 100 -158 134 -38 19 -159 29 -208 16z"/>
 <path d="M7165 3503 c-34 -12 -67 -34 -102 -70 -48 -49 -55 -59 -52 -79 0 -4 -5 -10 -12 -14 -10 -7 -10 -14 0 -37 9 -22 19 -29 44 -31 18 -2 34 -7 35 -12 2 -6 12 -10 21 -10 10 0 21 -3 25 -7 9 -9 78 -33 97 -33 9 0 24 -8 33 -19 9 -10 37 -21 62 -25 42 -5 93 -33 122 -66 7 -8 11 -10 8 -3 -4 6 2 19 11 29 10 10 17 19 16 21 -7 8 -2 24 6 19 26 -16 28 131 2 186 -21 47 -89 116 -138 142 -48 24 -121 28 -178 9z"/>
 <path d="M5085 3254 c-46 -11 -131 -62 -167 -98 -56 -57 -98 -156 -98 -230 0 -46 24 -123 46 -147 8 -9 11 -19 7 -22 -3 -4 -1 -7 6 -7 7 0 9 -5 5 -12 -4 -6 -3 -8 4 -4 6 3 14 1 19 -7 13 -21 61 -47 87 -47 14 0 28 -4 31 -10 3 -5 15 -10 26 -10 10 0 19 -4 19 -10 0 -5 9 -10 21 -10 11 0 18 -4 15 -9 -3 -5 10 -12 29 -15 24 -5 33 -11 28 -19 -5 -9 -3 -9 9 0 8 7 18 10 21 6 4 -3 13 0 22 7 12 10 15 10 15 -1 0 -9 3 -10 8 -4 4 6 14 11 22 13 67 15 152 92 195 176 24 49 29 72 30 131 0 42 -6 84 -14 101 -8 16 -21 44 -30 62 -23 47 -88 107 -150 138 -54 26 -156 40 -206 28z"/>
 <path d="M2572 3225 c-89 -42 -138 -113 -141 -207 -2 -59 9 -88 44 -121 11 -10 13 -16 5 -12 -8 4 2 -9 24 -29 21 -20 44 -36 52 -36 8 0 14 -4 14 -10 0 -5 5 -10 11 -10 5 0 7 6 3 13 -4 7 1 6 12 -3 24 -19 154 -17 154 2 0 4 6 8 14 8 22 0 73 51 98 96 26 47 31 146 8 190 -23 46 -104 120 -141 129 -62 15 -109 12 -157 -10z"/>
 <path d="M3834 2785 c-83 -41 -136 -110 -148 -196 -6 -44 8 -142 25 -163 39 -51 83 -95 90 -90 5 3 9 2 9 -3 0 -17 67 -37 126 -37 94 0 169 42 218 121 67 108 58 206 -26 298 -87 96 -190 120 -294 70z"/>
 <path d="M5602 2606 c-30 -12 -57 -27 -60 -33 -4 -5 -15 -12 -24 -16 -10 -3 -18 -13 -18 -22 0 -8 -3 -15 -7 -15 -10 0 -53 -63 -53 -76 0 -5 8 5 19 22 16 26 23 30 54 26 20 -2 42 -10 48 -18 6 -8 18 -14 25 -14 8 0 22 -4 32 -9 24 -12 80 -29 124 -36 20 -4 39 -13 42 -21 3 -8 20 -14 41 -14 19 0 35 -4 35 -10 0 -5 8 -10 18 -10 10 0 23 -5 29 -11 27 -27 36 17 20 101 -12 60 -90 139 -159 160 -74 22 -110 21 -166 -4z"/>
 <path d="M5050 2610 c8 -5 24 -10 34 -10 26 0 18 6 -19 14 -22 5 -26 4 -15 -4z"/>
 <path d="M7365 2413 c-79 -43 -104 -116 -66 -192 46 -90 149 -103 222 -30 35 35 39 44 39 91 0 108 -106 179 -195 131z"/>
 <path d="M6258 2344 c-3 -2 -15 -7 -28 -9 -12 -2 -29 -10 -39 -17 -37 -28 -71 -62 -71 -72 0 -6 5 -4 10 5 10 16 80 15 80 -2 0 -5 9 -9 20 -9 11 0 20 -4 20 -8 0 -4 34 -18 75 -31 41 -13 75 -27 75 -30 0 -10 53 -29 90 -33 32 -3 35 -1 34 22 -2 44 -9 65 -24 77 -8 7 -11 13 -7 13 12 0 -50 60 -62 60 -6 0 -11 5 -11 11 0 5 -4 8 -9 5 -5 -4 -11 -1 -13 6 -4 11 -130 22 -140 12z"/>
 <path d="M6871 2286 c-38 -14 -109 -79 -121 -112 -9 -22 -5 -132 4 -142 3 -3 19 -5 36 -4 16 0 30 -4 30 -9 0 -5 11 -9 24 -9 14 0 28 -4 31 -10 3 -5 15 -10 26 -10 10 0 19 -5 19 -11 0 -6 6 -9 14 -6 8 3 23 -3 34 -14 23 -20 37 -25 27 -9 -3 5 0 8 7 5 15 -6 79 58 95 95 14 33 8 101 -11 138 -21 42 -79 89 -123 101 -46 13 -49 13 -92 -3z"/>
 <path d="M4237 2200 c-26 -10 -50 -18 -53 -18 -10 0 -81 -73 -98 -101 -9 -14 20 -40 44 -41 8 0 36 -11 62 -24 25 -13 63 -26 82 -30 20 -4 36 -11 36 -15 0 -5 19 -11 42 -15 22 -4 46 -10 52 -14 6 -4 27 -12 46 -17 19 -6 35 -16 35 -22 0 -6 4 -15 9 -20 5 -5 6 -3 2 5 -4 6 -3 12 2 12 13 0 32 46 32 77 0 59 -48 150 -101 191 -19 15 -125 54 -141 52 -1 -1 -25 -9 -51 -20z"/>
 <path d="M4060 1985 c0 -19 4 -35 8 -35 4 0 6 16 4 35 -2 19 -6 35 -8 35 -2 0 -4 -16 -4 -35z"/>
 <path d="M4460 1838 c-15 -21 -17 -28 -6 -19 16 13 41 51 33 51 -2 0 -14 -15 -27 -32z"/>
 </g>
<g id="layer103" fill="#75c5f6" stroke="none">
 <path d="M4854 8912 c-25 -16 -64 -87 -64 -116 0 -43 45 -110 87 -130 62 -29 113 -16 166 43 22 25 27 40 27 81 0 28 -5 56 -10 63 -6 7 -19 24 -31 40 -19 25 -26 27 -92 27 -40 0 -77 -4 -83 -8z"/>
 <path d="M5382 8816 c-39 -13 -100 -71 -113 -104 -14 -37 -10 -111 7 -148 21 -44 78 -88 129 -100 85 -21 178 38 209 133 15 45 15 53 1 94 -19 54 -57 96 -110 120 -46 21 -76 23 -123 5z"/>
 <path d="M5865 8493 c-54 -19 -101 -57 -132 -106 -22 -35 -26 -54 -26 -112 0 -85 27 -136 100 -186 147 -101 351 7 351 186 0 101 -70 190 -172 220 -58 18 -68 17 -121 -2z"/>
 <path d="M6959 8363 c-78 -59 -80 -152 -4 -223 22 -21 37 -25 85 -25 55 0 60 2 99 42 36 36 41 47 41 87 0 120 -127 189 -221 119z"/>
 <path d="M3851 8342 c-62 -21 -136 -95 -151 -152 -34 -127 48 -268 167 -286 56 -8 138 1 159 18 54 44 76 70 98 115 26 50 35 126 17 137 -4 3 -11 19 -14 36 -10 47 -82 112 -148 133 -64 20 -69 20 -128 -1z"/>
 <path d="M3217 8289 c-20 -11 -49 -38 -65 -61 -54 -82 -23 -214 57 -249 17 -8 31 -17 31 -21 0 -5 3 -7 8 -7 4 1 9 0 12 -1 63 -24 184 36 210 106 6 14 10 52 10 85 0 54 -3 62 -37 100 -21 23 -52 48 -70 56 -46 19 -112 16 -156 -8z"/>
 <path d="M4480 8134 c-63 -24 -101 -47 -125 -76 -87 -103 -87 -246 0 -343 87 -99 232 -115 333 -38 54 40 60 47 87 101 56 111 16 250 -91 318 -45 29 -67 36 -122 39 -37 3 -74 2 -82 -1z"/>
 <path d="M2780 8086 c0 -10 28 -13 41 -5 10 6 7 9 -13 9 -16 0 -28 -2 -28 -4z"/>
 <path d="M7322 8017 c-42 -16 -88 -60 -114 -110 -38 -74 -9 -159 74 -219 48 -34 140 -33 194 3 128 85 104 263 -45 325 -40 17 -64 17 -109 1z"/>
 <path d="M6227 7958 c-46 -10 -127 -63 -127 -83 0 -8 -5 -15 -11 -15 -5 0 -19 -20 -30 -44 -14 -33 -17 -51 -10 -68 6 -16 6 -30 -1 -39 -8 -11 -9 -10 -4 4 3 9 1 17 -4 17 -6 0 -10 -9 -10 -20 0 -21 15 -27 25 -10 8 13 45 13 45 0 0 -5 17 -12 38 -15 20 -3 49 -13 64 -21 14 -8 35 -14 45 -14 10 0 23 -4 29 -8 5 -5 34 -17 65 -26 31 -9 65 -24 75 -31 11 -8 29 -15 41 -15 12 0 24 -6 26 -12 4 -10 6 -10 6 0 1 7 5 10 11 7 6 -4 7 1 3 11 -4 10 0 20 10 26 10 5 17 16 17 23 0 8 4 15 8 15 5 0 8 30 8 68 -1 126 -82 230 -195 250 -63 12 -71 12 -124 0z"/>
 <path d="M6040 7655 c0 -14 4 -25 9 -25 4 0 6 11 3 25 -2 14 -6 25 -8 25 -2 0 -4 -11 -4 -25z"/>
 <path d="M4971 7641 c-66 -27 -143 -92 -166 -139 -11 -23 -24 -42 -29 -42 -4 0 -6 -7 -2 -15 3 -8 2 -15 -2 -15 -4 0 -8 -12 -8 -27 -1 -16 -4 -37 -8 -48 -5 -14 -3 -14 5 3 15 27 24 28 49 4 11 -10 47 -24 82 -31 35 -8 77 -19 93 -26 45 -18 100 -35 114 -35 7 0 19 -6 27 -14 7 -8 32 -17 54 -21 22 -4 40 -11 40 -16 0 -5 6 -9 14 -9 7 0 35 -10 62 -22 56 -25 77 -30 68 -17 -3 5 5 18 18 28 21 18 23 27 23 113 0 51 -3 102 -6 113 -27 90 -82 153 -175 200 -74 38 -183 44 -253 16z"/>
 <path d="M7509 7477 c-129 -48 -192 -187 -138 -301 27 -59 88 -119 105 -105 8 7 15 6 20 -2 5 -8 3 -9 -6 -4 -9 5 -11 4 -6 -3 4 -7 15 -12 25 -12 10 0 21 -3 24 -6 8 -9 79 -12 92 -5 6 3 13 6 18 7 4 1 8 2 10 4 1 1 11 3 22 5 20 4 118 105 110 113 -3 3 0 11 6 19 18 21 16 123 -3 163 -17 36 -75 95 -117 118 -35 20 -120 24 -162 9z"/>
 <path d="M2925 7233 c-40 -11 -107 -66 -141 -118 -29 -43 -35 -62 -36 -106 0 -111 -1 -110 64 -115 22 -1 47 -9 56 -17 10 -8 43 -22 74 -31 31 -9 60 -21 63 -26 3 -6 19 -10 34 -10 16 0 34 -7 41 -15 7 -8 23 -15 37 -15 16 0 22 -4 18 -12 -4 -7 0 -5 8 5 8 9 17 17 21 17 11 0 55 54 56 68 0 6 5 12 10 12 6 0 10 9 10 19 0 11 5 23 10 26 6 3 10 32 10 64 0 96 -64 194 -154 239 -42 21 -128 28 -181 15z"/>
 <path d="M3675 7187 c-59 -20 -85 -36 -136 -84 -40 -37 -86 -109 -93 -146 -2 -7 -6 -20 -10 -29 -10 -21 -2 -108 15 -163 13 -45 36 -80 87 -133 19 -21 30 -30 24 -21 -7 9 -8 20 -4 24 4 5 1 5 -7 0 -10 -6 -12 -4 -7 4 6 8 15 5 32 -12 15 -16 42 -27 71 -32 27 -4 56 -16 72 -31 14 -13 27 -20 29 -14 2 6 10 6 23 -1 11 -6 35 -7 57 -2 20 4 43 6 50 5 6 -2 12 2 12 8 0 5 9 10 20 10 29 0 133 107 160 165 19 40 23 67 23 135 0 77 -3 90 -32 143 -41 73 -91 121 -160 154 -64 31 -166 40 -226 20z"/>
 <path d="M4410 6771 c-93 -31 -167 -85 -218 -159 -37 -54 -74 -143 -69 -164 3 -10 1 -16 -4 -12 -5 3 -9 1 -9 -4 0 -6 7 -12 15 -16 8 -3 15 0 15 7 0 8 3 8 8 2 4 -6 34 -19 67 -30 33 -10 64 -23 70 -27 5 -4 15 -8 23 -8 8 0 33 -9 56 -19 58 -27 79 -34 94 -32 6 1 12 -2 12 -7 0 -5 11 -9 23 -9 13 0 39 -8 58 -16 36 -17 141 -58 149 -59 7 -1 51 -18 85 -34 17 -7 43 -15 60 -16 25 -3 32 2 50 38 29 57 29 59 33 158 5 125 -21 196 -105 286 -35 37 -80 75 -101 84 -20 9 -46 22 -57 29 -24 13 -219 20 -255 8z"/>
 <path d="M8474 6703 c-48 -10 -115 -96 -108 -140 1 -7 2 -22 3 -33 0 -12 19 -40 40 -63 37 -39 43 -42 93 -42 91 1 149 62 142 150 -7 82 -90 145 -170 128z"/>
 <path d="M8486 6210 c-34 -11 -92 -63 -112 -103 -24 -45 -21 -99 7 -153 30 -58 74 -90 134 -100 153 -23 263 147 177 275 -16 23 -43 51 -61 62 -38 23 -104 32 -145 19z"/>
 <path d="M3785 6179 c-56 -13 -97 -34 -152 -76 -98 -75 -152 -174 -169 -308 -12 -88 49 -235 128 -312 36 -35 132 -94 148 -91 3 1 16 -4 29 -11 25 -14 159 -17 211 -6 35 8 114 48 138 71 113 104 147 160 161 264 11 83 6 139 -22 215 -25 70 -26 72 -93 140 -73 75 -161 116 -260 121 -44 2 -97 -1 -119 -7z"/>
 <path d="M2895 6051 c-113 -30 -218 -143 -245 -263 -11 -47 -11 -68 0 -120 8 -35 20 -69 27 -76 7 -7 13 -19 13 -26 0 -33 157 -165 180 -151 4 3 10 1 12 -5 5 -15 118 -19 165 -5 24 7 45 13 46 13 23 3 48 19 104 67 72 62 95 115 100 225 4 86 2 100 -21 151 -30 64 -101 136 -167 169 -48 23 -163 35 -214 21z"/>
 <path d="M8335 5671 c-54 -13 -112 -49 -148 -91 -36 -43 -52 -87 -32 -87 7 0 10 9 7 21 -5 20 -4 20 15 4 11 -10 25 -18 31 -18 7 0 12 -4 12 -9 0 -5 35 -17 78 -27 42 -10 89 -26 103 -35 14 -10 38 -21 55 -24 45 -10 94 -35 94 -47 0 -27 39 27 45 62 16 96 -77 225 -176 244 -13 2 -31 6 -39 9 -8 3 -28 2 -45 -2z"/>
 <path d="M2204 5605 c-10 -8 -15 -15 -10 -15 5 0 3 -7 -4 -15 -10 -12 -10 -15 1 -15 8 0 27 -7 43 -15 16 -8 46 -18 67 -21 21 -4 46 -14 56 -23 10 -9 53 -25 96 -35 69 -16 76 -20 65 -34 -10 -12 -10 -14 0 -8 7 4 12 2 12 -4 0 -6 5 -8 11 -4 8 4 7 9 -2 15 -8 5 -10 9 -5 9 5 0 1 9 -8 19 -10 11 -15 25 -11 30 3 6 -1 14 -9 17 -9 3 -13 10 -10 15 3 5 -3 9 -12 9 -10 0 -14 3 -11 6 9 10 -62 64 -84 64 -10 0 -21 5 -24 10 -10 16 -138 12 -161 -5z"/>
 <path d="M3638 5355 c-64 -17 -144 -65 -198 -118 -153 -149 -158 -405 -11 -560 88 -94 183 -137 301 -137 126 0 205 35 306 136 78 78 123 223 102 331 -26 134 -98 237 -209 300 -104 59 -195 75 -291 48z"/>
 <path d="M2940 4701 c-106 -34 -210 -136 -223 -219 -3 -17 -8 -36 -12 -42 -12 -19 -17 -70 -7 -70 5 0 8 11 7 25 -2 14 -1 25 1 25 3 0 9 -11 14 -25 7 -17 17 -25 34 -25 14 0 28 -4 31 -10 3 -5 15 -10 27 -10 11 0 34 -7 51 -15 31 -14 177 -66 246 -86 18 -6 48 -19 66 -29 19 -10 50 -22 69 -26 20 -3 36 -11 36 -17 0 -18 29 27 30 46 0 9 5 17 10 17 6 0 10 9 10 20 0 11 4 20 9 20 11 0 12 6 14 112 1 50 -2 81 -10 90 -7 6 -13 18 -13 25 0 21 -74 117 -106 138 -40 27 -75 46 -99 53 -34 9 -158 11 -185 3z"/>
 <path d="M3992 4583 c-31 -6 -131 -60 -161 -87 -35 -31 -111 -138 -111 -156 0 -9 -5 -21 -12 -28 -13 -13 -17 -191 -5 -236 27 -99 124 -214 219 -259 79 -37 125 -47 207 -42 61 3 87 10 150 41 94 48 140 95 191 196 37 74 40 87 40 160 0 168 -87 310 -235 386 -43 21 -66 25 -155 28 -58 1 -116 0 -128 -3z"/>
 <path d="M8598 4364 c-34 -23 -68 -83 -68 -124 0 -38 41 -100 83 -123 52 -31 104 -20 160 31 25 23 27 32 27 97 0 66 -2 73 -30 100 -25 23 -40 29 -87 32 -42 3 -65 -1 -85 -13z"/>
 <path d="M4819 4196 c-3 -3 -19 -7 -35 -9 -66 -8 -145 -50 -210 -114 -30 -29 -54 -57 -54 -62 0 -5 -6 -16 -12 -23 -16 -18 -38 -55 -38 -65 0 -5 5 -1 10 9 9 15 15 15 71 2 33 -8 70 -21 82 -29 12 -8 31 -15 42 -15 11 0 34 -8 50 -18 17 -10 64 -28 105 -41 41 -13 89 -29 107 -37 17 -8 40 -14 52 -14 18 0 78 -23 135 -52 10 -6 41 -16 68 -24 27 -8 47 -18 44 -22 -3 -5 0 -14 6 -22 8 -12 9 -12 4 2 -3 10 -1 20 4 23 4 3 8 51 7 108 -2 89 -6 109 -31 162 -47 99 -190 217 -278 230 -88 13 -124 16 -129 11z"/>
 <path d="M8314 3970 c-22 -10 -56 -37 -74 -60 -29 -36 -35 -53 -38 -105 -4 -56 -2 -64 29 -104 48 -63 91 -83 161 -78 71 4 122 40 156 111 21 44 22 53 11 98 -27 116 -143 181 -245 138z"/>
 <path d="M7854 3653 c5 -11 2 -11 -15 -2 -15 8 -19 8 -15 0 4 -6 1 -11 -6 -12 -7 0 2 -7 20 -15 18 -8 37 -12 41 -9 5 2 14 -2 21 -10 7 -8 28 -15 46 -15 19 0 34 -4 34 -10 0 -5 9 -10 19 -10 11 0 23 -4 26 -10 3 -5 17 -9 29 -8 22 2 23 4 10 23 -32 49 -104 86 -172 90 -33 2 -42 -1 -38 -12z"/>
 <path d="M4193 2550 c0 -25 2 -35 4 -22 2 12 2 32 0 45 -2 12 -4 2 -4 -23z"/>
 <path d="M4063 1985 c0 -22 2 -30 4 -17 2 12 2 30 0 40 -3 9 -5 -1 -4 -23z"/>
 </g>

</svg>